<svg width="341" height="81" viewBox="0 0 341 81" fill="none" xmlns="http://www.w3.org/2000/svg">
<mask id="mask0_1245_35618" style="mask-type:alpha" maskUnits="userSpaceOnUse" x="0" y="13" width="49" height="54">
<path d="M19.4512 14.9112C22.2682 13.2848 25.7388 13.2848 28.5558 14.9112L43.4548 23.5131C46.2717 25.1395 48.007 28.1451 48.007 31.3979V48.6017C48.007 51.8545 46.2717 54.8601 43.4548 56.4865L28.5558 65.0884C25.7388 66.7148 22.2682 66.7148 19.4513 65.0884L4.55227 56.4865C1.73532 54.8601 0 51.8545 0 48.6017V31.3979C0 28.1451 1.73531 25.1395 4.55226 23.5131L19.4512 14.9112Z" fill="#C4C4C4"/>
</mask>
<g mask="url(#mask0_1245_35618)">
<rect width="30.3817" height="30.3817" transform="matrix(0.866025 0.5 -0.866025 0.5 24.0039 11.8311)" fill="#FF007B"/>
<rect width="27.9554" height="27.9554" transform="matrix(0.866025 0.5 -2.20305e-08 1 -0.207031 27.2417)" fill="#C80000"/>
<rect width="27.9554" height="27.9554" transform="matrix(0.866025 -0.5 2.20305e-08 1 24.0039 41.2231)" fill="#FF4B3A"/>
</g>
<path d="M65.4268 33V5.868H86.8968V33H81.1588V10.656H71.1648V33H65.4268ZM107.117 25.058C106.357 26.7807 105.547 28.2753 104.685 29.542C103.849 30.7833 102.773 31.7333 101.455 32.392C100.138 33.0507 98.4153 33.38 96.2873 33.38C95.6286 33.38 94.9066 33.3293 94.1213 33.228C93.336 33.1267 92.614 32.9873 91.9553 32.81V27.87C92.5633 28.1233 93.2346 28.3007 93.9693 28.402C94.704 28.5033 95.388 28.554 96.0213 28.554C96.8573 28.554 97.5286 28.4147 98.0353 28.136C98.5673 27.8573 98.9853 27.4773 99.2893 26.996C99.6186 26.4893 99.8846 25.9447 100.087 25.362L90.7013 5.868H96.7813L101.835 17.61C101.962 17.8633 102.114 18.1927 102.291 18.598C102.469 19.0033 102.646 19.4213 102.823 19.852C103.001 20.2827 103.14 20.6627 103.241 20.992H103.431C103.533 20.688 103.659 20.3207 103.811 19.89C103.989 19.434 104.166 18.978 104.343 18.522C104.546 18.0407 104.723 17.6227 104.875 17.268L109.587 5.868H115.515L107.117 25.058ZM141.169 33H135.431V21.296H124.677V33H118.939V5.868H124.677V16.508H135.431V5.868H141.169V33ZM170.111 33H163.575L153.733 19.244V33H147.995V5.868H153.733V19.016L163.461 5.868H169.579L159.699 18.902L170.111 33ZM183.976 33H178.238V10.656H170.866V5.868H191.348V10.656H183.976V33ZM76.9028 73L70.3668 51.72H70.2148C70.2402 52.2267 70.2782 52.9867 70.3288 54C70.3795 55.0133 70.4302 56.1027 70.4808 57.268C70.5315 58.408 70.5568 59.4467 70.5568 60.384V73H65.4268V45.868H73.2548L79.6768 66.616H79.7908L86.5928 45.868H94.4208V73H89.0628V60.156C89.0628 59.2947 89.0755 58.3067 89.1008 57.192C89.1515 56.0773 89.1895 55.026 89.2148 54.038C89.2655 53.0247 89.3035 52.2647 89.3288 51.758H89.1768L82.1848 73H76.9028ZM101.274 45.868H106.442V58.978C106.442 59.6113 106.43 60.3207 106.404 61.106C106.379 61.8913 106.354 62.664 106.328 63.424C106.303 64.1587 106.278 64.8047 106.252 65.362C106.227 65.894 106.202 66.2613 106.176 66.464H106.29L118.83 45.868H125.708V73H120.578V59.966C120.578 59.282 120.591 58.5347 120.616 57.724C120.642 56.888 120.667 56.09 120.692 55.33C120.743 54.57 120.781 53.9113 120.806 53.354C120.857 52.7713 120.895 52.3913 120.92 52.214H120.768L108.19 73H101.274V45.868ZM154.028 73H148.29V50.656H141.64C141.488 51.8213 141.323 53.088 141.146 54.456C140.994 55.824 140.816 57.2173 140.614 58.636C140.436 60.0293 140.246 61.3593 140.044 62.626C139.841 63.8673 139.638 64.9693 139.436 65.932C139.106 67.5027 138.663 68.8453 138.106 69.96C137.574 71.0747 136.826 71.9233 135.864 72.506C134.926 73.0887 133.698 73.38 132.178 73.38C131.671 73.38 131.19 73.342 130.734 73.266C130.278 73.19 129.847 73.0887 129.442 72.962V68.25C129.771 68.3513 130.088 68.44 130.392 68.516C130.721 68.592 131.076 68.63 131.456 68.63C131.962 68.63 132.38 68.4653 132.71 68.136C133.039 67.8067 133.33 67.2493 133.584 66.464C133.837 65.6533 134.09 64.5387 134.344 63.12C134.47 62.512 134.622 61.6507 134.8 60.536C134.977 59.396 135.18 58.066 135.408 56.546C135.661 55.0007 135.914 53.3287 136.168 51.53C136.421 49.706 136.662 47.8187 136.89 45.868H154.028V73ZM185.496 59.396C185.496 61.4987 185.23 63.4113 184.698 65.134C184.191 66.8313 183.406 68.3007 182.342 69.542C181.303 70.7833 179.961 71.7333 178.314 72.392C176.693 73.0507 174.78 73.38 172.576 73.38C170.372 73.38 168.447 73.0507 166.8 72.392C165.179 71.708 163.836 70.758 162.772 69.542C161.733 68.3007 160.948 66.8187 160.416 65.096C159.909 63.3733 159.656 61.4607 159.656 59.358C159.656 56.546 160.112 54.1013 161.024 52.024C161.961 49.9467 163.38 48.338 165.28 47.198C167.205 46.0327 169.65 45.45 172.614 45.45C175.553 45.45 177.972 46.0327 179.872 47.198C181.772 48.338 183.178 49.9593 184.09 52.062C185.027 54.1393 185.496 56.584 185.496 59.396ZM165.698 59.396C165.698 61.296 165.939 62.93 166.42 64.298C166.901 65.666 167.649 66.7173 168.662 67.452C169.675 68.1867 170.98 68.554 172.576 68.554C174.223 68.554 175.54 68.1867 176.528 67.452C177.541 66.7173 178.276 65.666 178.732 64.298C179.213 62.93 179.454 61.296 179.454 59.396C179.454 56.5333 178.922 54.2913 177.858 52.67C176.794 51.0487 175.046 50.238 172.614 50.238C170.993 50.238 169.675 50.6053 168.662 51.34C167.649 52.0747 166.901 53.126 166.42 54.494C165.939 55.862 165.698 57.496 165.698 59.396ZM202.63 50.276C201.541 50.276 200.566 50.4913 199.704 50.922C198.868 51.3527 198.159 51.9733 197.576 52.784C196.994 53.5693 196.55 54.532 196.246 55.672C195.968 56.812 195.828 58.0913 195.828 59.51C195.828 61.4353 196.056 63.082 196.512 64.45C196.994 65.7927 197.741 66.8187 198.754 67.528C199.768 68.2373 201.06 68.592 202.63 68.592C203.745 68.592 204.847 68.4653 205.936 68.212C207.051 67.9587 208.254 67.604 209.546 67.148V71.974C208.356 72.4553 207.178 72.81 206.012 73.038C204.847 73.266 203.542 73.38 202.098 73.38C199.312 73.38 197.006 72.81 195.182 71.67C193.384 70.5047 192.054 68.8833 191.192 66.806C190.331 64.7033 189.9 62.2587 189.9 59.472C189.9 57.42 190.179 55.5453 190.736 53.848C191.294 52.1253 192.104 50.6433 193.168 49.402C194.258 48.1607 195.588 47.198 197.158 46.514C198.754 45.83 200.578 45.488 202.63 45.488C203.973 45.488 205.316 45.6653 206.658 46.02C208.026 46.3493 209.331 46.8053 210.572 47.388L208.71 52.062C207.697 51.5807 206.671 51.1627 205.632 50.808C204.619 50.4533 203.618 50.276 202.63 50.276ZM230.93 73H215.312V45.868H230.93V50.58H221.05V56.546H230.246V61.258H221.05V68.25H230.93V73ZM245.239 45.868C248.735 45.868 251.281 46.628 252.877 48.148C254.499 49.6427 255.309 51.7073 255.309 54.342C255.309 55.5327 255.132 56.6727 254.777 57.762C254.423 58.826 253.827 59.7887 252.991 60.65C252.181 61.486 251.104 62.1447 249.761 62.626C248.419 63.1073 246.759 63.348 244.783 63.348H242.313V73H236.575V45.868H245.239ZM244.935 50.58H242.313V58.636H244.213C245.303 58.636 246.24 58.4967 247.025 58.218C247.811 57.9393 248.419 57.496 248.849 56.888C249.28 56.28 249.495 55.4947 249.495 54.532C249.495 53.1893 249.128 52.2013 248.393 51.568C247.659 50.9093 246.506 50.58 244.935 50.58ZM279.415 45.868V68.212H283.025V80.904H277.477V73H260.491V80.904H254.943V68.212H257.033C257.742 66.7933 258.426 65.2987 259.085 63.728C259.744 62.1573 260.352 60.4727 260.909 58.674C261.492 56.8753 262.011 54.9247 262.467 52.822C262.923 50.694 263.303 48.376 263.607 45.868H279.415ZM268.167 50.656C267.99 51.9733 267.736 53.3793 267.407 54.874C267.078 56.3433 266.685 57.8507 266.229 59.396C265.798 60.9413 265.317 62.4613 264.785 63.956C264.253 65.4507 263.683 66.8693 263.075 68.212H273.677V50.656H268.167ZM287.192 45.868H292.36V58.978C292.36 59.6113 292.348 60.3207 292.322 61.106C292.297 61.8913 292.272 62.664 292.246 63.424C292.221 64.1587 292.196 64.8047 292.17 65.362C292.145 65.894 292.12 66.2613 292.094 66.464H292.208L304.748 45.868H311.626V73H306.496V59.966C306.496 59.282 306.509 58.5347 306.534 57.724C306.56 56.888 306.585 56.09 306.61 55.33C306.661 54.57 306.699 53.9113 306.724 53.354C306.775 52.7713 306.813 52.3913 306.838 52.214H306.686L294.108 73H287.192V45.868ZM327.596 62.588L321.25 73H314.866L322.58 61.068C321.845 60.764 321.11 60.3207 320.376 59.738C319.641 59.13 319.033 58.332 318.552 57.344C318.07 56.3307 317.83 55.0893 317.83 53.62C317.83 51.112 318.729 49.1993 320.528 47.882C322.326 46.5393 324.847 45.868 328.09 45.868H336.906V73H331.168V62.588H327.596ZM328.318 50.58C327.33 50.58 326.481 50.694 325.772 50.922C325.088 51.15 324.556 51.5173 324.176 52.024C323.821 52.5307 323.644 53.202 323.644 54.038C323.644 55.2287 324.036 56.1787 324.822 56.888C325.632 57.572 326.848 57.914 328.47 57.914H331.168V50.58H328.318Z" fill="#170F49"/>
</svg>
